# xmcd
#
# Track frame offsets: 
#        150
#        4605
#        7969
#        11485
#        15347
#        18895
#        25757
#        31027
#        35849
#        37643
#        45201
#        50845
#        54752
#        57499
#        60244
#        63787
#        69238
#        71800
#        73988
#        76293
#        80514
#        85514
#        90500
#        93705
#        99108
#        101014
#        109088
#        113481
#
# Disc length: 1619 seconds
#
# Revision: 0
# Processed by: cddbd v1.5.2PL0 Copyright (c) Steve Scherf et al.
# Submitted via: ExactAudioCopy v0.99pb5
#
DISCID=3d06511c
DTITLE=Condom Decay - Pregnanthology
DYEAR=2010
DGENRE=Goregrind
TTITLE0=Encephalitis Because Watching Porno And Masturbation Everyday
TTITLE1=Voice Of Lust
TTITLE2=Omphalocele
TTITLE3=Genesis Mutation
TTITLE4=Asian Amature Animals Duo Sadistical Erotica (remake)
TTITLE5=Spread The Presnant Uterus And Puke To The Fetus' Head (remake
TTITLE5=)
TTITLE6=Million Of Monsters' Cocks In Cancerous Clitoris (remake)
TTITLE7=Your Twat Is Bigger Than My Butt! (feat. Goredick from Smallpo
TTITLE7=x Aroma)
TTITLE8=Severe Endometrosis
TTITLE9=Exorcism (Hepatic Encephalopathy)
TTITLE10=Habitually
TTITLE11=Amonic Membrane Ruptured
TTITLE12=Hysterectomy
TTITLE13=Precocious Puperty
TTITLE14=Sick
TTITLE15=Vibro Vulnificus
TTITLE16=Ependymoma
TTITLE17=Caranculae Mytiform
TTITLE18=Myocardial
TTITLE19=Malignance Metastasis
TTITLE20=Bilateval Salpingo-Oophorectomy
TTITLE21=Une Souris Verte [Ultra Vomit cover]
TTITLE22=Carcinosarcoma Fermented In Scrotal Cystz [Smallpox Aroma cov
TTITLE22=er]
TTITLE23=Chainsaw Legend
TTITLE24=Episiotomy Of Perinium
TTITLE25=Mental Retard
TTITLE26=Outro
TTITLE27=Taylor Rain [Gut cover] - Live
EXTD=
EXTT0=
EXTT1=
EXTT2=
EXTT3=
EXTT4=
EXTT5=
EXTT6=
EXTT7=
EXTT8=
EXTT9=
EXTT10=
EXTT11=
EXTT12=
EXTT13=
EXTT14=
EXTT15=
EXTT16=
EXTT17=
EXTT18=
EXTT19=
EXTT20=
EXTT21=
EXTT22=
EXTT23=
EXTT24=
EXTT25=
EXTT26=
EXTT27=
PLAYORDER=
